<svg xmlns="http://www.w3.org/2000/svg" data-name="Layer 1" viewBox="0 0 128 128" width="24" height="24"><path d="M33 12h4V38h4V12H87V38h4V12h4a2.0001 2.0001 0 002-2V6a6.00656 6.00656 0 00-6-6H37a6.00656 6.00656 0 00-6 6v4A2.0001 2.0001 0 0033 12zm2-6a2.00229 2.00229 0 012-2H91a2.00229 2.00229 0 012 2V8H35zM64 83a2.0001 2.0001 0 002-2V77a2 2 0 00-4 0v4A2.0001 2.0001 0 0064 83zM51 91H49a2 2 0 000 4h2a2 2 0 000-4zM53.3457 81.08447a1.99979 1.99979 0 00-2.82812 2.82813l1.50879 1.50879a1.99979 1.99979 0 002.82813-2.82812zM66 98.35V89a2 2 0 00-4 0v9.35a6 6 0 104 0zM64 106a2 2 0 112-2A2.00229 2.00229 0 0164 106z" fill="#000000" class="color000 svgShape"></path><path d="M72.89648 24.71289a2.00061 2.00061 0 00-1.59473-1.34229l-3.78125-.57812-1.71-3.64209a2 2 0 00-3.62109 0l-1.71 3.64209-3.78125.57813a2.0003 2.0003 0 00-1.12988 3.374l2.79492 2.86426-.66309 4.06934a2 2 0 002.94141 2.07227L64 33.89355l3.3584 1.85693a2.03072 2.03072 0 002.11914-.11523 1.99755 1.99755 0 00.82227-1.957l-.66309-4.06934 2.79492-2.86426A1.99959 1.99959 0 0072.89648 24.71289zM66.06836 27.5376a1.999 1.999 0 00-.542 1.71875l.16309 1.00049-.72168-.39893a2.00159 2.00159 0 00-1.93555 0l-.72168.39893.16309-1.00049a1.999 1.999 0 00-.542-1.71875l-.78223-.80078.98926-.15137A1.9982 1.9982 0 0063.64746 25.458L64 24.707l.35254.751a1.9982 1.9982 0 001.50879 1.12744l.98926.15137zM110.69647 119.833L92.85962 64.36621A6.305 6.305 0 0086.82483 60H74.99933V56H99.99786a6.00642 6.00642 0 005.99969-6V44a2.00009 2.00009 0 00-1.99994-2H24.00238a2.00009 2.00009 0 00-1.99994 2v6a6.00642 6.00642 0 005.99969 6H53.00067v4H41.17517a6.305 6.305 0 00-6.03479 4.36621L17.30353 119.833a6.156 6.156 0 00.89838 5.56543A6.28677 6.28677 0 0023.33832 128h81.32336a6.28677 6.28677 0 005.13641-2.60156A6.156 6.156 0 00110.69647 119.833zM28.00214 52a2.00223 2.00223 0 01-1.99988-2V46h75.99548v4a2.00223 2.00223 0 01-1.99988 2zm42.99744 4v4H57.00043V56zM38.94873 65.59082A2.31526 2.31526 0 0141.17517 64H86.82483a2.31526 2.31526 0 012.22644 1.59082L105.26166 116H22.73834zM104.66168 124H23.33838a2.31964 2.31964 0 01-2.2265-2.94238L21.452 120H106.548l.34015 1.05762A2.19034 2.19034 0 01104.66168 124z" fill="#000000" class="color000 svgShape"></path><path d="M79 91H77a2 2 0 000 4h2a2 2 0 000-4zM77.48242 83.9126a1.99979 1.99979 0 00-2.82812-2.82812l-1.50879 1.50879a1.99979 1.99979 0 002.82813 2.82813z" fill="#000000" class="color000 svgShape"></path></svg>