<svg xmlns="http://www.w3.org/2000/svg" version="1.2" viewBox="0 0 100 100" width="24" height="24"><path d="M85 38.6c.7 0 1.2-.6 1.2-1.2V8c0-4-3.3-7.2-7.2-7.2H29c-.3 0-.6.1-.9.4l-14 14c-.2.2-.4.6-.4.9v76c0 4 3.3 7.2 7.2 7.2h58c4 0 7.2-3.3 7.2-7.2V48.3c0-.7-.6-1.2-1.2-1.2h-6.8v-8.5H85zm-1.2-2.5h-5.5v-7.5h5.5v7.5zM77 49.6h6.8V92c0 2.6-2.1 4.8-4.8 4.8H21c-2.6 0-4.8-2.1-4.8-4.8V16.5L29.5 3.2H79c2.6 0 4.8 2.1 4.8 4.8v18.1H77c-.7 0-1.2.6-1.2 1.2v21c0 .7.5 1.3 1.2 1.3z" fill="#000000" class="color000 svgShape"></path><path d="M80.2 21V9c0-.7-.6-1.2-1.2-1.2h-4c-.7 0-1.2.6-1.2 1.2v12c0 .7.6 1.2 1.2 1.2h4c.7 0 1.2-.5 1.2-1.2zm-2.4-1.2h-1.5v-9.5h1.5v9.5zm-52.4-5h-4c-.7 0-1.2.6-1.2 1.2v12c0 .7.6 1.2 1.2 1.2h4c.7 0 1.2-.6 1.2-1.2V16c.1-.7-.5-1.2-1.2-1.2zm-1.2 12h-1.5v-9.5h1.5v9.5zm10.2-19h-4c-.7 0-1.2.6-1.2 1.2v12c0 .7.6 1.2 1.2 1.2h4c.7 0 1.2-.6 1.2-1.2V9c.1-.7-.5-1.2-1.2-1.2zm-1.2 12h-1.5v-9.5h1.5v9.5zm10.2-12h-4c-.7 0-1.2.6-1.2 1.2v12c0 .7.6 1.2 1.2 1.2h4c.7 0 1.2-.6 1.2-1.2V9c.1-.7-.5-1.2-1.2-1.2zm-1.2 12h-1.5v-9.5h1.5v9.5zm10.2-12h-4c-.7 0-1.2.6-1.2 1.2v12c0 .7.6 1.2 1.2 1.2h4c.7 0 1.2-.6 1.2-1.2V9c.1-.7-.5-1.2-1.2-1.2zm-1.2 12h-1.5v-9.5h1.5v9.5zm10.2-12h-4c-.7 0-1.2.6-1.2 1.2v12c0 .7.6 1.2 1.2 1.2h4c.7 0 1.2-.6 1.2-1.2V9c.1-.7-.5-1.2-1.2-1.2zm-1.2 12h-1.5v-9.5h1.5v9.5zm10.2-12h-4c-.7 0-1.2.6-1.2 1.2v12c0 .7.6 1.2 1.2 1.2h4c.7 0 1.2-.6 1.2-1.2V9c.1-.7-.5-1.2-1.2-1.2zm-1.2 12h-1.5v-9.5h1.5v9.5z" fill="#000000" class="color000 svgShape"></path></svg>