<svg xmlns="http://www.w3.org/2000/svg" viewBox="0 0 74 74" width="24" height="24"><path d="M69,72H5a3,3,0,0,1-3-3V63a1.926,1.926,0,0,1,.531-1.425A2.885,2.885,0,0,1,4.744,61H69a3,3,0,0,1,3,3v5A3,3,0,0,1,69,72ZM4,63.017V69a1,1,0,0,0,1,1H69a1,1,0,0,0,1-1V64a1,1,0,0,0-1-1H4.728A6.819,6.819,0,0,0,4,63.017Z" fill="#000000" class="color000 svgShape"></path><path d="M69 63H5V59a5.006 5.006 0 015-5H64a5.006 5.006 0 015 5zM7 61H67V59a3 3 0 00-3-3H10a3 3 0 00-3 3zM4.5 33a2.607 2.607 0 01-1.967-.577A1.926 1.926 0 012 31V25a3 3 0 013-3H69a3 3 0 013 3v5a3 3 0 01-3 3H4.5zM4 30.983A6.566 6.566 0 004.728 31H69a1 1 0 001-1V25a1 1 0 00-1-1H5a1 1 0 00-1 1z" fill="#000000" class="color000 svgShape"></path><path d="M64 40H10a5.006 5.006 0 01-5-5V31H69v4A5.006 5.006 0 0164 40zM7 33v2a3 3 0 003 3H64a3 3 0 003-3V33zM43 24H31V2H43zM33 22h8V4H33z" fill="#000000" class="color000 svgShape"></path><path d="M37,56a9.271,9.271,0,0,1-9.5-9A9.271,9.271,0,0,1,37,38a9.271,9.271,0,0,1,9.5,9A9.271,9.271,0,0,1,37,56Zm0-16a7.271,7.271,0,0,0-7.5,7A7.271,7.271,0,0,0,37,54a7.271,7.271,0,0,0,7.5-7A7.271,7.271,0,0,0,37,40Z" fill="#000000" class="color000 svgShape"></path><rect width="16.29" height="1.999" x="28.772" y="6" transform="rotate(-7.042 36.911 7.002)" fill="#000000" class="color000 svgShape"></rect><rect width="16.29" height="1.999" x="28.772" y="10" transform="rotate(-7.042 36.918 11)" fill="#000000" class="color000 svgShape"></rect><rect width="16.29" height="1.999" x="28.772" y="14" transform="rotate(-7.042 36.917 14.996)" fill="#000000" class="color000 svgShape"></rect><rect width="16.29" height="1.999" x="28.772" y="18" transform="rotate(-7.042 36.915 19.001)" fill="#000000" class="color000 svgShape"></rect></svg>