<svg xmlns="http://www.w3.org/2000/svg" viewBox="0 0 24 24" width="24" height="24"><path fill="none" stroke="#303c42" stroke-linecap="round" stroke-linejoin="round" d="M12 .5C7.9.5 4.5 3.9 4.5 8c0 4.4 3 5.7 3 7v1c0 .8.7 1.5 1.5 1.5h6c.8 0 1.5-.7 1.5-1.5v-1c0-1.3 3-2.6 3-7 0-4.1-3.4-7.5-7.5-7.5zm-3.5 17v3.4c0 .4.2.8.4 1.1l1 1c.4.4.9.6 1.4.6h1.3c.5 0 1-.2 1.4-.6l1-1c.3-.3.4-.7.4-1.1v-3.4H8.5zM8.5 19.5h7M8.6 21.5h6.8" class="colorStroke303c42 svgStroke"></path><path fill="none" stroke="#303c42" stroke-linecap="round" stroke-linejoin="round" d="M10.5 17.5V16c0-2.9-.7-5.8-2-8.5h0m5 10V16c0-2.9.7-5.8 2-8.5h0" class="colorStroke303c42 svgStroke"></path><path fill="none" stroke="#303c42" stroke-linecap="round" stroke-linejoin="round" d="M8.5 7.5c.9 0 .9 1 1.8 1s.9-1 1.8-1 .9 1 1.8 1 .9-1 1.8-1" class="colorStroke303c42 svgStroke"></path></svg>