<svg xmlns="http://www.w3.org/2000/svg" data-name="Layer 1" viewBox="0 0 128 128" width="24" height="24"><path d="M15 100v20a4.005 4.005 0 0 0 4 4h10a4.005 4.005 0 0 0 4-4v-20a4.005 4.005 0 0 0-4-4H19a4.005 4.005 0 0 0-4 4zm14.002 20H19v-20h10zM95 100v20a4.005 4.005 0 0 0 4 4h10a4.005 4.005 0 0 0 4-4v-20a4.005 4.005 0 0 0-4-4H99a4.005 4.005 0 0 0-4 4zm4 0h10l.002 20H99zM64 4a37.998 37.998 0 0 0-8 75.145V87h-1a2 2 0 0 0-2 2v15.19a2.001 2.001 0 0 0 .828 1.621 17.779 17.779 0 0 0 20.344 0 2.001 2.001 0 0 0 .828-1.62V89a2 2 0 0 0-2-2h-1v-7.855A37.998 37.998 0 0 0 64 4zm7 99.117a14.009 14.009 0 0 1-14 0V91h14zM60 87v-7.212a37.868 37.868 0 0 0 8 0V87zm33.631-43h4.305a33.856 33.856 0 0 1-8.538 20.57l-2.448-2.448a2 2 0 0 0-2.828 2.828l2.448 2.448A33.856 33.856 0 0 1 66 75.936v-4.305a2 2 0 0 0-4 0v4.305a33.856 33.856 0 0 1-20.57-8.538l2.448-2.448a2 2 0 0 0-2.828-2.828l-2.448 2.448A33.856 33.856 0 0 1 30.064 44h4.305a2 2 0 0 0 0-4h-4.305a33.856 33.856 0 0 1 8.538-20.57l2.448 2.448a2 2 0 0 0 2.828-2.828l-2.448-2.448A33.856 33.856 0 0 1 62 8.064v4.305a2 2 0 0 0 4 0V8.064a33.856 33.856 0 0 1 20.57 8.538l-2.448 2.448a2 2 0 1 0 2.828 2.828l2.448-2.448A33.856 33.856 0 0 1 97.936 40h-4.305a2 2 0 0 0 0 4z" fill="#000000" class="color000 svgShape"></path><path d="M64 35a6.957 6.957 0 0 0-3.328.843L50.414 25.586a2 2 0 0 0-2.828 2.828l10.257 10.258A7 7 0 1 0 64 35zm0 10a3 3 0 1 1 3-3 3.003 3.003 0 0 1-3 3zm27 56H79v3.19a5.985 5.985 0 0 1-.06.81H91zM37 115h54v4H37zM37 101v4h12.06a5.985 5.985 0 0 1-.06-.81V101zM4 119h7v-4H4v-10h7v-4H4a4.005 4.005 0 0 0-4 4v10a4.005 4.005 0 0 0 4 4zm120-18h-7v4h7l.002 10H117v4h7a4.005 4.005 0 0 0 4-4v-10a4.005 4.005 0 0 0-4-4z" fill="#000000" class="color000 svgShape"></path></svg>