<svg xmlns="http://www.w3.org/2000/svg" enable-background="new 0 0 64 64" viewBox="0 0 64 64" width="24" height="24"><path d="M59,17H5c-1.7,0-3,1.3-3,3v24c0,1.7,1.3,3,3,3h54c1.7,0,3-1.3,3-3V20C62,18.3,60.7,17,59,17z M40,45H5c-0.6,0-1-0.4-1-1V20
	c0-0.6,0.4-1,1-1h16v6h-3v2h8v-2h-3v-6h17V45z M60,44c0,0.6-0.4,1-1,1H42V33h18V44z M60,31H42V19h17c0.6,0,1,0.4,1,1V31z" fill="#000000" class="color000 svgShape"></path><polygon points="52 21 50 21 50 24 47 24 47 26 50 26 50 29 52 29 52 26 55 26 55 24 52 24" fill="#000000" class="color000 svgShape"></polygon><rect width="8" height="2" x="47" y="38" fill="#000000" class="color000 svgShape"></rect><polygon points="18 33 24 33 24 36 18 36 18 43 26 43 26 41 20 41 20 38 26 38 26 31 18 31" fill="#000000" class="color000 svgShape"></polygon></svg>