<svg xmlns="http://www.w3.org/2000/svg" enable-background="new 0 0 512 512" viewBox="0 0 512 512" width="24" height="24"><path d="M421.981,99.02C380.05,57.09,324.3,34,265,34S149.95,57.09,108.02,99.02S43,196.7,43,256s23.09,115.05,65.02,156.98   C149.95,454.91,205.7,478,265,478s115.05-23.09,156.98-65.02C463.91,371.05,487,315.3,487,256S463.91,140.95,421.981,99.02z    M265,441.179c-102.11,0-185.18-83.069-185.18-185.18c0-102.11,83.07-185.18,185.18-185.18c102.11,0,185.18,83.07,185.18,185.18   C450.18,358.11,367.111,441.179,265,441.179z" fill="#000000" class="color000 svgShape"></path><path d="M265,140.06c-5.15,0-10.22,0.34-15.19,1l-6.48-27.75c-0.49-2.13-2.29-3.61-4.37-3.81c2.16-0.88,3.49-3.17,3.05-5.55   l-3.47-18.67c-0.51-2.71-3.12-4.5-5.83-4c-2.72,0.5-4.51,3.11-4,5.83l3.46,18.66c0.42,2.24,2.26,3.83,4.41,4.05   c-2.09,0.85-3.4,3.04-3.06,5.35l4.12,28.16c-50.77,12.33-88.58,58.17-88.58,112.67c0,63.93,52.01,115.94,115.94,115.94   c63.93,0,115.94-52.011,115.94-115.94C380.941,192.07,328.93,140.06,265,140.06z M187.79,328.46   C169.99,309.5,159.06,284,159.06,256c0-49.48,34.1-91.14,80.03-102.73l11.88,81.18c-7.03,4.6-11.7,12.54-11.7,21.55   c0,11.66,7.81,21.53,18.46,24.67l2.159,14.811c0.2,1.35,0.94,2.56,2.051,3.35c0.109,0.08,0.239,0.14,0.359,0.21   C234.57,299.67,208.38,310.03,187.79,328.46z M342.21,328.46c-20.31-18.17-46.05-28.49-73.35-29.38l11.93-2.26   c1.33-0.261,2.51-1.051,3.25-2.19c0.75-1.14,0.99-2.53,0.68-3.86l-3.46-14.85c5.771-4.729,9.46-11.9,9.46-19.92   c0-12.2-8.54-22.44-19.95-25.06l-18.68-80.09c4.23-0.52,8.54-0.79,12.91-0.79c58.42,0,105.94,47.52,105.94,105.94   C370.941,284,360.01,309.5,342.21,328.46z" fill="#000000" class="color000 svgShape"></path><path d="M265 130.555c2.762 0 5-2.239 5-5V80.449c0-2.761-2.238-5-5-5-2.763 0-5 2.239-5 5v45.106C260 128.317 262.239 130.555 265 130.555zM215.687 135.132c.739 2.031 2.656 3.292 4.699 3.292.568 0 1.145-.098 1.709-.303 2.595-.943 3.933-3.813 2.988-6.408l-15.429-42.386c-.943-2.596-3.813-3.934-6.407-2.988-2.596.944-3.934 3.813-2.988 6.408L215.687 135.132zM177.323 159.288c.989 1.179 2.406 1.786 3.833 1.786 1.135 0 2.275-.384 3.212-1.17 2.114-1.775 2.391-4.929.615-7.044l-28.994-34.553c-1.773-2.115-4.929-2.391-7.044-.616-2.114 1.774-2.391 4.929-.615 7.044L177.323 159.288zM110.468 172.554l39.063 22.554c.788.455 1.647.671 2.495.671 1.729 0 3.409-.897 4.335-2.501 1.382-2.392.563-5.449-1.83-6.83l-39.063-22.554c-2.393-1.381-5.449-.562-6.83 1.83S108.076 171.174 110.468 172.554zM91.249 230.44l44.42 7.833c.294.052.585.077.874.077 2.381 0 4.49-1.707 4.918-4.134.479-2.719-1.336-5.313-4.057-5.792l-44.42-7.833c-2.716-.483-5.313 1.337-5.792 4.057C86.714 227.367 88.529 229.96 91.249 230.44zM135.669 273.726l-44.42 7.835c-2.72.479-4.535 3.072-4.056 5.792.429 2.426 2.537 4.133 4.918 4.133.288 0 .581-.025.875-.077l44.421-7.835c2.719-.479 4.534-3.073 4.055-5.792C140.982 275.063 138.394 273.248 135.669 273.726zM438.75 281.562l-44.422-7.836c-2.72-.479-5.313 1.337-5.792 4.056-.479 2.719 1.336 5.313 4.057 5.792l44.421 7.836c.294.052.586.077.874.077 2.381 0 4.49-1.707 4.918-4.133C443.284 284.635 441.47 282.042 438.75 281.562zM388.536 234.217c.429 2.427 2.537 4.134 4.918 4.134.288 0 .58-.025.874-.077l44.421-7.832c2.721-.479 4.535-3.073 4.057-5.792-.479-2.719-3.065-4.535-5.792-4.057l-44.421 7.832C389.872 228.904 388.058 231.497 388.536 234.217zM373.636 193.278c.926 1.604 2.605 2.501 4.335 2.501.848 0 1.708-.216 2.495-.671l39.063-22.553c2.393-1.381 3.211-4.438 1.83-6.83s-4.438-3.212-6.83-1.83l-39.063 22.553C373.073 187.828 372.255 190.886 373.636 193.278zM345.632 159.905c.937.786 2.077 1.17 3.211 1.17 1.427 0 2.844-.606 3.833-1.786l28.995-34.554c1.774-2.115 1.499-5.27-.616-7.044-2.115-1.775-5.27-1.5-7.044.616l-28.995 34.554C343.24 154.976 343.517 158.13 345.632 159.905zM307.904 138.121c.564.206 1.143.303 1.71.303 2.042 0 3.959-1.261 4.698-3.291l15.429-42.386c.944-2.595-.394-5.464-2.987-6.409-2.592-.943-5.464.394-6.408 2.988l-15.43 42.386C303.971 134.307 305.309 137.177 307.904 138.121zM250.365 108.003c.16 0 .323-.008.486-.023 2.749-.267 4.761-2.709 4.495-5.458l-1.829-18.896c-.266-2.749-2.711-4.767-5.458-4.495-2.749.267-4.761 2.709-4.495 5.458l1.829 18.896C245.644 106.069 247.82 108.003 250.365 108.003zM219.208 109.206c.614 2.213 2.625 3.663 4.813 3.663.443 0 .895-.06 1.341-.184 2.661-.739 4.219-3.495 3.479-6.156l-5.082-18.291c-.739-2.661-3.496-4.219-6.156-3.479-2.661.738-4.218 3.494-3.479 6.155L219.208 109.206zM194.413 119.387c.857 1.797 2.648 2.846 4.515 2.846.723 0 1.456-.157 2.151-.489 2.491-1.189 3.547-4.175 2.356-6.667l-8.182-17.13c-1.19-2.493-4.176-3.546-6.667-2.357-2.492 1.19-3.547 4.176-2.357 6.667L194.413 119.387zM182.774 126.061c.934 1.581 2.601 2.461 4.313 2.461.863 0 1.738-.225 2.535-.694 2.378-1.403 3.169-4.468 1.767-6.847l-9.644-16.354c-1.403-2.378-4.469-3.169-6.848-1.767-2.378 1.403-3.169 4.468-1.767 6.847L182.774 126.061zM171.762 133.72c.976 1.366 2.513 2.095 4.073 2.095 1.005 0 2.021-.303 2.9-.933 2.247-1.604 2.769-4.727 1.163-6.975l-11.03-15.448c-1.604-2.247-4.727-2.768-6.976-1.163-2.247 1.604-2.768 4.728-1.163 6.976L171.762 133.72zM151.947 151.769c.974.956 2.238 1.432 3.503 1.432 1.295 0 2.59-.5 3.567-1.498 1.936-1.97 1.905-5.136-.064-7.071l-13.549-13.299c-1.97-1.935-5.137-1.905-7.069.065-1.936 1.97-1.905 5.136.064 7.071L151.947 151.769zM143.292 162.018c.931.767 2.057 1.14 3.175 1.14 1.442 0 2.874-.621 3.863-1.822 1.755-2.132 1.449-5.282-.683-7.038l-14.654-12.066c-2.133-1.755-5.284-1.45-7.038.682-1.755 2.132-1.45 5.283.682 7.038L143.292 162.018zM119.913 162.241l15.65 10.744c.865.594 1.851.878 2.825.878 1.592 0 3.158-.759 4.126-2.171 1.563-2.276.984-5.389-1.292-6.952l-15.651-10.744c-2.275-1.563-5.389-.984-6.951 1.292C117.058 157.566 117.636 160.678 119.913 162.241zM105.835 188.858l17.277 7.863c.673.306 1.375.449 2.068.449 1.899 0 3.716-1.088 4.554-2.93 1.145-2.514.034-5.479-2.479-6.622l-17.278-7.863c-2.513-1.144-5.478-.034-6.622 2.479C102.212 184.75 103.322 187.715 105.835 188.858zM100.589 202.986l17.898 6.327c.552.194 1.113.287 1.667.287 2.061 0 3.989-1.283 4.715-3.335.92-2.604-.444-5.46-3.049-6.381l-17.898-6.326c-2.606-.921-5.46.443-6.381 3.048C96.621 199.209 97.985 202.066 100.589 202.986zM96.594 217.518l18.382 4.743c.419.107.839.159 1.252.159 2.227 0 4.256-1.497 4.838-3.752.69-2.674-.918-5.399-3.592-6.09l-18.382-4.743c-2.673-.689-5.4.918-6.09 3.593C92.312 214.102 93.92 216.828 96.594 217.518zM92.47 247.344l18.927 1.479c.133.01.265.016.396.016 2.584 0 4.773-1.989 4.979-4.61.215-2.753-1.842-5.159-4.595-5.375l-18.927-1.479c-2.755-.212-5.159 1.842-5.375 4.596C87.659 244.723 89.717 247.129 92.47 247.344zM92.324 262.416c.016 0 .031 0 .047 0l18.983-.177c2.762-.026 4.979-2.285 4.954-5.047-.025-2.745-2.259-4.953-4.999-4.953-.016 0-.032 0-.047 0l-18.984.177c-2.761.026-4.979 2.285-4.953 5.047C87.351 260.208 89.584 262.416 92.324 262.416zM93.1 277.46c.161 0 .325-.008.488-.022l18.896-1.832c2.749-.268 4.762-2.711 4.494-5.459-.266-2.748-2.705-4.754-5.459-4.494l-18.896 1.832c-2.749.267-4.762 2.711-4.494 5.459C88.38 275.527 90.556 277.46 93.1 277.46zM437.529 264.654l-18.92-1.479c-2.739-.217-5.159 1.842-5.374 4.596-.216 2.753 1.842 5.159 4.595 5.374l18.921 1.479c.133.011.264.017.396.017 2.584 0 4.774-1.99 4.979-4.61C442.339 267.275 440.281 264.869 437.529 264.654zM437.626 249.584l-18.979.177c-2.761.025-4.979 2.284-4.953 5.046.025 2.746 2.259 4.954 4.999 4.954.017 0 .031-.002.048-.002l18.979-.176c2.761-.024 4.979-2.285 4.953-5.046S440.418 249.574 437.626 249.584zM417.994 246.37c.161 0 .324-.008.488-.023l18.891-1.83c2.748-.267 4.762-2.71 4.494-5.458-.267-2.748-2.703-4.767-5.459-4.495l-18.891 1.83c-2.748.266-4.761 2.71-4.494 5.458C413.275 244.436 415.449 246.37 417.994 246.37zM430.082 205.124l-18.285 5.083c-2.661.74-4.219 3.496-3.479 6.156.615 2.213 2.625 3.663 4.814 3.663.442 0 .895-.061 1.342-.185l18.286-5.083c2.661-.739 4.218-3.495 3.479-6.155C435.498 205.942 432.739 204.385 430.082 205.124zM407.247 197.585c-2.586.969-3.896 3.851-2.929 6.437.753 2.008 2.658 3.248 4.685 3.248.582 0 1.175-.104 1.753-.319l17.77-6.656c2.586-.968 3.897-3.85 2.929-6.436-.97-2.585-3.848-3.901-6.437-2.928L407.247 197.585zM418.74 177.231l-17.122 8.179c-2.49 1.19-3.547 4.175-2.355 6.667.857 1.796 2.647 2.846 4.516 2.846.722 0 1.456-.156 2.151-.488l17.122-8.18c2.49-1.189 3.547-4.175 2.355-6.667C424.217 177.097 421.234 176.041 418.74 177.231zM386.118 169.734c.978 1.367 2.515 2.095 4.073 2.095 1.006 0 2.021-.303 2.902-.932l15.442-11.029c2.247-1.604 2.769-4.728 1.163-6.975-1.605-2.248-4.729-2.768-6.976-1.163l-15.443 11.028C385.034 164.364 384.515 167.487 386.118 169.734zM378.141 159.506c.989 1.157 2.391 1.75 3.802 1.75 1.15 0 2.306-.395 3.248-1.199l14.421-12.333c2.1-1.794 2.345-4.951.55-7.05-1.795-2.1-4.952-2.345-7.05-.55l-14.421 12.333C376.592 154.251 376.346 157.407 378.141 159.506zM369.234 142.941c-1.935 1.971-1.904 5.137.066 7.071.973.956 2.236 1.432 3.502 1.432 1.295 0 2.59-.5 3.567-1.498l13.292-13.543c1.936-1.971 1.904-5.137-.065-7.071-1.969-1.935-5.137-1.904-7.07.066L369.234 142.941zM349.312 133.511c.864.593 1.85.878 2.824.878 1.593 0 3.158-.76 4.127-2.171L367 116.573c1.563-2.277.983-5.39-1.294-6.952-2.275-1.563-5.391-.981-6.95 1.293l-10.737 15.646C346.454 128.836 347.033 131.948 349.312 133.511zM338.314 126.628c.777.439 1.622.648 2.455.648 1.744 0 3.438-.915 4.358-2.542l9.335-16.521c1.357-2.403.511-5.454-1.895-6.813-2.405-1.36-5.454-.511-6.813 1.894l-9.335 16.521C335.062 122.219 335.908 125.269 338.314 126.628zM326.761 120.732c.671.305 1.375.45 2.066.45 1.899 0 3.717-1.089 4.555-2.932l7.858-17.272c1.145-2.515.033-5.479-2.479-6.622s-5.479-.033-6.621 2.479l-7.859 17.273C323.137 116.623 324.246 119.588 326.761 120.732zM302.327 112.061c.42.107.841.16 1.254.16 2.226 0 4.257-1.497 4.838-3.751l4.742-18.375c.69-2.674-.917-5.4-3.591-6.092-2.676-.692-5.4.917-6.091 3.593l-4.743 18.375C298.047 108.644 299.655 111.371 302.327 112.061zM289.645 109.355c.278.046.556.068.828.068 2.4 0 4.52-1.732 4.926-4.179l3.121-18.717c.454-2.724-1.386-5.3-4.108-5.754-2.724-.458-5.302 1.386-5.755 4.11l-3.12 18.717C285.081 106.324 286.921 108.901 289.645 109.355zM276.767 107.766c.133.01.266.016.396.016 2.584 0 4.772-1.99 4.979-4.61l1.481-18.918c.216-2.753-1.842-5.158-4.595-5.375-2.732-.213-5.158 1.842-5.375 4.596l-1.48 18.918C271.957 105.144 274.014 107.55 276.767 107.766z" fill="#000000" class="color000 svgShape"></path></svg>