<svg xmlns="http://www.w3.org/2000/svg" viewBox="0 0 24 24" width="24" height="24"><path fill="none" stroke="#303c42" stroke-linecap="round" stroke-linejoin="round" d="M5 21.5h14c.8 0 1.5.7 1.5 1.5v.5h0-17 0V23c0-.8.7-1.5 1.5-1.5zm14-19H5c-.8 0-1.5-.7-1.5-1.5V.5h17V1c0 .8-.7 1.5-1.5 1.5zm-.5 19v-2.3c0-1.7-.7-3.3-2-4.5l-3-2.7 3-2.7c1.3-1.1 2-2.8 2-4.5V2.5h-13v2.3c0 1.7.7 3.3 2 4.5l3 2.7-3 2.7c-1.3 1.1-2 2.8-2 4.5v2.3h13z" class="colorStroke303c42 svgStroke"></path><path fill="none" stroke="#303c42" stroke-linecap="round" stroke-linejoin="round" d="m7.5 21.5 4.5-6 4.5 6M8.6 7.5l.3.3 3.2 2.9 3.2-2.9.3-.3h-7z" class="colorStroke303c42 svgStroke"></path></svg>