<svg xmlns="http://www.w3.org/2000/svg" data-name="Layer 1" viewBox="0 0 128 128" width="24" height="24"><path d="M126.51626,28.06714a6.08369,6.08369,0,0,0-4.57815-2.06738H101.00051V12.00024h1a4.00428,4.00428,0,0,0,4-4v-4a4.00428,4.00428,0,0,0-4-4H4a4.00459,4.00459,0,0,0-4,4v4a3.99886,3.99886,0,0,0,3.89522,3.98938L17.00009,32.5824v81.41736a14.01576,14.01576,0,0,0,14.00007,14H87.00044a14.01576,14.01576,0,0,0,14.00007-14v-20h2.84767A18.21047,18.21047,0,0,0,121.944,78.32056l6.00491-45.54443A5.95965,5.95965,0,0,0,126.51626,28.06714ZM17.00009,25.13153,8.6436,12.00024h8.35649Zm80.0004,88.86823a10.01148,10.01148,0,0,1-10.00005,10H31.00016a10.01117,10.01117,0,0,1-10.00005-10v-67H97.00049Zm0-71H21.00011V12.00024H97.00049ZM4,8.00024v-4h98.00049l.00293,4Zm97.00049,29.9986,14.00007-.00153-4.6719,36.99219a8.08,8.08,0,0,1-8.04106,7.01025h-1.28712ZM123.984,32.25366,117.97911,77.7981a14.20084,14.20084,0,0,1-14.13093,12.20166h-2.84767v-4h1.28712a12.08814,12.08814,0,0,0,12.00983-10.50928l4.67188-36.9925a4.07931,4.07931,0,0,0-3.98926-4.49823H101.00051v-4h20.93838A2.031,2.031,0,0,1,123.984,32.25366Z" fill="#000000" class="color000 svgShape"></path><path d="M43.00022 56.99976h40.0002a2 2 0 1 0 0-4H43.00022a2 2 0 1 0 0 4zM43.00022 68.99976h40.0002a2 2 0 1 0 0-4H43.00022a2 2 0 1 0 0 4zM43.00022 80.99976h40.0002a2 2 0 1 0 0-4H43.00022a2 2 0 1 0 0 4zM43.00022 116.99976h40.0002a2 2 0 1 0 0-4H43.00022a2 2 0 1 0 0 4zM43.00022 104.99976h40.0002a2 2 0 1 0 0-4H43.00022a2 2 0 1 0 0 4zM43.00022 92.99976h40.0002a2 2 0 1 0 0-4H43.00022a2 2 0 1 0 0 4zM28.47329 59.70825l.52686-.57373v56.86523a2 2 0 0 0 4 0V59.13452l.52686.57373a1.99988 1.99988 0 0 0 2.9463-2.70508l-4-4.356a2.02659 2.02659 0 0 0-2.9463 0l-4 4.356a1.99988 1.99988 0 0 0 2.9463 2.70508z" fill="#000000" class="color000 svgShape"></path></svg>