<svg xmlns="http://www.w3.org/2000/svg" data-name="Layer 1" viewBox="0 0 64 64" width="24" height="24"><path d="M56,10H52.41406l3.293-3.293L54.293,5.293l-5,5A.99991.99991,0,0,0,50,12h3.58594l-3.293,3.293L51.707,16.707l5-5A.99991.99991,0,0,0,56,10Z" fill="#000000" class="color000 svgShape"></path><path d="M53 2a9 9 0 1 0 9 9A9.01047 9.01047 0 0 0 53 2zm0 16a7 7 0 1 1 7-7A7.00787 7.00787 0 0 1 53 18zM35 20H31.41406l3.293-3.293L33.293 15.293l-5 5A.99991.99991 0 0 0 29 22h3.58594l-3.293 3.293L30.707 26.707l5-5A.99991.99991 0 0 0 35 20z" fill="#000000" class="color000 svgShape"></path><path d="M32 12a9 9 0 1 0 9 9A9.01047 9.01047 0 0 0 32 12zm0 16a7 7 0 1 1 7-7A7.00787 7.00787 0 0 1 32 28zM54.89551 22.79688l-1.99121.19042c.063.65967.09521 1.334.0957 2.0044l2-.001C54.99951 24.25732 54.96436 23.51953 54.89551 22.79688zM39.4126 3.22266l-.64551 1.89257c.63184.21582 1.25977.46338 1.86621.73731l.82227-1.82324C40.7915 3.73 40.10449 3.4585 39.4126 3.22266zM35.13867 2.21484l-.27148 1.98145c.66162.09033 1.32568.21387 1.97265.36621l.459-1.94629C36.58984 2.44873 35.86279 2.314 35.13867 2.21484z" fill="#000000" class="color000 svgShape"></path><path d="M54.768,28.22461h.00006q.07251-.51415.123-1.03613l-1.99023-.19239c-.00281.02863-.00726.05677-.01019.08539L43.00391,27.043l-.00782,2,9.59961.0376a21.02573,21.02573,0,0,1-6.39258,11.38086A15.812,15.812,0,0,0,41.03369,51H22.9707a15.78424,15.78424,0,0,0-5.17041-10.53613A20.99505,20.99505,0,0,1,30.65674,4.042c.1084-.00683.22412-.01269.34326-.01758V10h2V3.00293a.99166.99166,0,0,0-.09442-.41034l.02264-.57159c-.30566-.01209-.6131-.01593-.92175-.01593l-.01086-.00214-.05878.00092c-.01813.00006-.03589-.001-.054-.00092V2.0047c-.42791.00336-.93432.01508-1.35107.0412a22.99536,22.99536,0,0,0-14.084,39.8916,13.757,13.757,0,0,1,4.51777,9.43231A3.49047,3.49047,0,0,0,22.5,58h.68427A2.96457,2.96457,0,0,0,23,59a3.00328,3.00328,0,0,0,3,3H38a3.00328,3.00328,0,0,0,3-3,2.96457,2.96457,0,0,0-.18427-1H41.5a3.49062,3.49062,0,0,0,1.53046-6.63239,13.73986,13.73986,0,0,1,4.5252-9.43353A23.01175,23.01175,0,0,0,54.768,28.22461ZM38,60H26a1,1,0,0,1,0-2H38a1,1,0,0,1,0,2Zm3.5-4h-19a1.5,1.5,0,0,1,0-3h19a1.5,1.5,0,0,1,0,3Z" fill="#000000" class="color000 svgShape"></path><path d="M37.707 43.707l3-3L39.293 39.293 38 40.58594V35a1 1 0 0 0-1-1H27v2h9v4.58594l-1.293-1.293L33.293 40.707l3 3a.99963.99963 0 0 0 1.41406 0zM27 49H37V47H28V42.99982l1.2002 1.60028 1.5996-1.2002-3-4a1.03527 1.03527 0 0 0-1.5996 0l-3 4 1.5996 1.2002L26 42.99982V48A1 1 0 0 0 27 49z" fill="#000000" class="color000 svgShape"></path><rect width="2" height="2" x="58" y="56" fill="#000000" class="color000 svgShape"></rect><rect width="2" height="2" x="58" y="60" fill="#000000" class="color000 svgShape"></rect><rect width="2" height="2" x="60" y="58" fill="#000000" class="color000 svgShape"></rect><rect width="2" height="2" x="56" y="58" fill="#000000" class="color000 svgShape"></rect><rect width="2" height="2" x="4" y="56" fill="#000000" class="color000 svgShape"></rect><rect width="2" height="2" x="4" y="60" fill="#000000" class="color000 svgShape"></rect><rect width="2" height="2" x="6" y="58" fill="#000000" class="color000 svgShape"></rect><rect width="2" height="2" x="2" y="58" fill="#000000" class="color000 svgShape"></rect></svg>