<svg xmlns="http://www.w3.org/2000/svg" data-name="Layer 1" viewBox="0 0 512 512" width="24" height="24"><ellipse cx="248.561" cy="52.931" rx="22.419" ry="34.716" fill="#000000" class="color000 svgShape"></ellipse><ellipse cx="94.806" cy="123.24" rx="11.5" ry="16.591" fill="#000000" class="color000 svgShape"></ellipse><path d="M123.465 114.023c6.775 0 12.5-8.2 12.5-17.9s-5.725-17.9-12.5-17.9-12.5 8.2-12.5 17.9 5.725 17.9 12.5 17.9zm90.721-55.467c0-12.756-7.4-23.134-16.5-23.134s-16.5 10.378-16.5 23.134 7.4 23.134 16.5 23.134 16.5-10.378 16.5-23.134z" fill="#000000" class="color000 svgShape"></path><ellipse cx="157.687" cy="75.556" rx="13.818" ry="19.625" fill="#000000" class="color000 svgShape"></ellipse><path d="m423.745 492-21.089-.215-.068-32.929 20.889.058h.013a5 5 0 0 0 .014-10l-20.937-.058-.053-26.14 12.706.032h.012a5 5 0 0 0 .013-10l-12.752-.032-.054-26.136 20.89.058h.014a5 5 0 0 0 .013-10l-20.938-.058-.054-26.14 12.708.031h.013a5 5 0 0 0 .013-10l-12.755-.031-.053-26.137 20.892.058h.013a5 5 0 0 0 .014-10l-20.94-.059-.054-26.139 12.71.032h.013a5 5 0 0 0 .012-10l-12.756-.032-.054-26.137 20.894.058h.014a5 5 0 0 0 .013-10l-20.941-.058-.055-26.14 12.712.032h.013a5 5 0 0 0 .013-10l-12.758-.032-.054-26.137 20.9.058h.013a5 5 0 0 0 .014-10l-20.944-.058-.054-26.14 12.714.032h.013a5 5 0 0 0 .012-10l-12.759-.032-.055-26.136 20.9.058h.014a5 5 0 0 0 .014-10l-20.946-.059-.054-26.139 12.715.031h.013a5 5 0 0 0 .013-10l-12.762-.031-.064-31.288 20.967.214h.052a5 5 0 0 0 .05-10L396.722 10a4.94 4.94 0 0 0-3.573 1.449 5 5 0 0 0-1.478 3.56l1 481.741a5 5 0 0 0 4.949 4.99l26.029.266h.051a5 5 0 0 0 .05-10zm-69.54-39.561-18.582-.038-.037-18.809a5 5 0 0 0-5-4.99h-.01a5 5 0 0 0-4.99 5.01l.037 18.769-18.54-.038h-.012a5.572 5.572 0 0 0-4.582 8.74l23.366 33.8a5.576 5.576 0 0 0 4.559 2.408h.027a5.573 5.573 0 0 0 4.553-2.361l23.754-33.7a5.573 5.573 0 0 0-4.543-8.787zM306.259 59.984l18.581.038.043 21.591a5 5 0 0 0 5 4.99h.01a5 5 0 0 0 4.99-5.01l-.043-21.551 18.541.038h.012a5.571 5.571 0 0 0 4.581-8.74l-23.365-33.8a5.574 5.574 0 0 0-4.562-2.407h-.025a5.572 5.572 0 0 0-4.552 2.36L301.712 51.2a5.574 5.574 0 0 0 4.548 8.783zM330.353 321.6h.009a5 5 0 0 0 4.991-5.01l-.048-24a5 5 0 0 0-5-4.99h-.01a5 5 0 0 0-4.99 5.01l.048 24a5 5 0 0 0 5 4.99zm.093 47h.01a5 5 0 0 0 4.99-5.01l-.048-24a5 5 0 0 0-5-4.99h-.009a5 5 0 0 0-4.991 5.01l.048 24a5 5 0 0 0 5 4.99zm-.188-94h.01a5 5 0 0 0 4.99-5.01l-.048-24a5 5 0 0 0-5-4.991h-.01a5 5 0 0 0-4.99 5.01l.048 24a5 5 0 0 0 5 4.991zm.282 141h.01a5 5 0 0 0 4.99-5.01l-.048-24a5 5 0 0 0-5-4.99h-.01a5 5 0 0 0-4.99 5.01l.048 24a5 5 0 0 0 5 4.99zm-.554-282a5 5 0 0 0 4.991-5.009l-.048-24a5 5 0 0 0-5-4.99h-.01a5 5 0 0 0-4.99 5.01l.048 24a5 5 0 0 0 5 4.99zm.178 94h.01a5 5 0 0 0 4.99-5.009l-.048-24a5 5 0 0 0-5-4.991h-.01a5 5 0 0 0-4.99 5.01l.048 24a5 5 0 0 0 5 4.99zm-.094-47h.01a5 5 0 0 0 4.99-5.009l-.048-24a5 5 0 0 0-5-4.991h-.009a5 5 0 0 0-4.991 5.01l.048 24a5 5 0 0 0 5 4.99zm-79.56-58.3c-9.244-8.209-23.132-13.493-39.915-13.493-17.389 0-37.886 5.669-59.562 19.629-34.041 21.924-68.058 66.081-51.9 118.372 32.411 104.873 28.788 166.968 26.905 183.5a53.535 53.535 0 0 0 .919 18.507 58.9 58.9 0 0 0 57.448 45.4q1.023 0 2.036-.034c25.459-.864 46.948-19.281 52.259-44.781 2.8-13.441-.394-27.934-8.757-39.762-10.474-14.813-33.4-55.262-20.144-110.794 5.869-24.58 14.488-44.339 26.353-60.405 7.864-10.648 24.226-32.8 30.8-55.484 7.148-24.643 1.766-44.483-16.442-60.655zM120.375 255.432q-.877-2.919-1.794-5.886a5 5 0 0 1 9.555-2.95q.927 3 1.815 5.955a5 5 0 1 1-9.576 2.881zm33.06 120.349a5 5 0 0 1-8.827-2.726c-2.835-30.385-9.215-63.8-18.967-99.326a5 5 0 0 1 9.644-2.646c9.905 36.081 16.391 70.076 19.279 101.042a4.963 4.963 0 0 1-1.129 3.656z" fill="#000000" class="color000 svgShape"></path></svg>