<svg xmlns="http://www.w3.org/2000/svg" viewBox="0 0 64 64" width="24" height="24"><path d="m13.76953,41.8125c.02895,1.31615,1.97389,1.31528,2-.00004,0,.00004,0-12.38485,0-12.38485l15.23047,8.79346v17.57959l-10.73047-6.19421c-1.13928-.6418-2.13251,1.05806-.99995,1.73244-.00005-.00002,12.23042,7.05955,12.23042,7.05955.15721.07229.32684.12963.5.13476.17277-.00547.3432-.062.5-.13476,0,0,12.23047-7.05956,12.23047-7.05956,1.12649-.66545.13812-2.37747-1.00006-1.7324.00006-.00003-10.73041,6.19419-10.73041,6.19419,0,0,0-17.57959,0-17.57959l15.23047-8.79346v12.38489c.01313,1.30865,1.98258,1.31713,1.99999-.00005,0,.00005,0-14.1103,0-14.1103-.00154-.04963-.01471-.09648-.01935-.14575-.04115-.30305-.23023-.55432-.48066-.72045,0,0-12.23046-7.06007-12.23046-7.06007-1.13813-.64231-2.12985,1.06772-.99995,1.73246-.00005-.00004,10.72407,6.19052,10.72407,6.19052l-15.22412,8.79041-15.22412-8.79041,10.72412-6.19055c1.12782-.66531.14739-2.37648-1.00004-1.73239.00004-.00003-12.23043,7.06003-12.23043,7.06003-.24886.16712-.44101.41649-.48064.72047-.00456.04934-.0178.09612-.01936.14575,0,0,0,14.11035,0,14.11035Z" fill="#000000" class="color000 svgShape"></path><path d="M32 28.69873c.55273 0 1-.44775 1-1V8.88086l2.29297 2.29297c.9261.9214 2.33613-.48624 1.41401-1.4141.00005.00004-3.9991-3.99911-3.9991-3.99911-.27727-.28173-.72528-.37226-1.08997-.21667-.09633-.15775-4.19052 4.14779-4.32504 4.21579-.91897.92978.48425 2.33443 1.4142 1.41405-.00004.00004 2.29293-2.29292 2.29293-2.29292v18.81787c0 .55225.44727 1 1 1zM6.72266 46.80176c-.53223-.14355-1.08203.17383-1.22461.70703l-1.46338 5.46289c-.14911.51963.19635 1.0905.71114 1.22777-.00002.00001 5.45927 1.46266 5.45927 1.46266 1.26756.31987 1.78638-1.56644.51753-1.93165.00004.00001-3.13173-.83904-3.13173-.83904l16.29681-9.409c1.12026-.66729.15558-2.37651-1.00004-1.73239.00004-.00003-16.29714 9.40921-16.29714 9.40921l.83917-3.13287c.14258-.5332-.17383-1.08203-.70703-1.22461zM39.74609 42.11621c-.27637.47852-.1123 1.08984.36621 1.36621l16.29681 9.409-3.13177.83905c-1.11554.28615-.88156 1.98209.25787 1.96581.08588.00001.1728-.01073.25971-.03417l5.45929-1.46265c.51465-.13802.86092-.70791.71111-1.22779.00001.00001-1.46337-5.46288-1.46337-5.46288-.35921-1.26334-2.24994-.75918-1.93163.51762-.00001-.00004.83916 3.13283.83916 3.13283l-16.29718-9.40924c-.47754-.27734-1.08984-.1123-1.36621.36621z" fill="#000000" class="color000 svgShape"></path></svg>