<svg xmlns="http://www.w3.org/2000/svg" viewBox="0 0 32 32" width="24" height="24"><g color="#000" font-family="sans-serif" font-weight="400"><path style="line-height:normal;text-indent:0;text-align:start;text-decoration-line:none;text-decoration-style:solid;text-decoration-color:#000;text-transform:none;white-space:normal;isolation:auto;mix-blend-mode:normal;solid-color:#000;solid-opacity:1" d="M12 1025.362c-1.65 0-3 1.35-3 3l-.004 14.053c-1.649 1.258-2.39 3.397-1.781 5.402a5.003 5.003 0 0 0 9.57-.002c.61-2.005-.133-4.142-1.783-5.4L15 1028.362c0-1.65-1.349-3-3-3zm0 1c1.11 0 2 .89 2 2l.002 14.26a.5.5 0 0 0 .223.416 3.996 3.996 0 0 1 1.604 4.486 3.997 3.997 0 0 1-3.829 2.838 3.995 3.995 0 0 1-3.828-2.836 3.996 3.996 0 0 1 1.604-4.486.5.5 0 0 0 .22-.416l.004-14.26c0-1.11.89-2 2-2z" overflow="visible" transform="translate(0 -1020.362)" fill="#000000" class="color000 svgShape"></path><path style="line-height:normal;text-indent:0;text-align:start;text-decoration-line:none;text-decoration-style:solid;text-decoration-color:#000;text-transform:none;white-space:normal;isolation:auto;mix-blend-mode:normal;solid-color:#000;solid-opacity:1" d="M12 1044.112a2.258 2.258 0 0 0-2.25 2.25 2.258 2.258 0 0 0 2.25 2.25 2.258 2.258 0 0 0 2.25-2.25 2.258 2.258 0 0 0-2.25-2.25zm0 1c.697 0 1.25.554 1.25 1.25s-.553 1.25-1.25 1.25c-.696 0-1.25-.554-1.25-1.25s.554-1.25 1.25-1.25z" overflow="visible" transform="translate(0 -1020.362)" fill="#000000" class="color000 svgShape"></path><path fill-rule="evenodd" style="line-height:normal;text-indent:0;text-align:start;text-decoration-line:none;text-decoration-style:solid;text-decoration-color:#000;text-transform:none;white-space:normal;isolation:auto;mix-blend-mode:normal;solid-color:#000;solid-opacity:1" d="M11.99 1031.364a.5.5 0 0 0-.492.506v12.486a.5.5 0 1 0 1 0v-12.486a.5.5 0 0 0-.508-.506z" overflow="visible" transform="translate(0 -1020.362)" fill="#000000" class="color000 svgShape"></path><path d="M23.5 1024.862c-1.65 0-3 1.35-3 3 0 1.651 1.35 3 3 3 1.652 0 3-1.349 3-3 0-1.65-1.348-3-3-3zm0 1c1.111 0 2 .89 2 2 0 1.11-.889 2-2 2-1.11 0-2-.89-2-2 0-1.11.89-2 2-2z" overflow="visible" style="line-height:normal;text-indent:0;text-align:start;text-decoration-line:none;text-decoration-style:solid;text-decoration-color:#000;text-transform:none;white-space:normal;isolation:auto;mix-blend-mode:normal;solid-color:#000;solid-opacity:1" transform="translate(0 -1020.362)" fill="#000000" class="color000 svgShape"></path><path fill-rule="evenodd" d="M23.493 1021.362a.5.5 0 0 0-.492.508v.986a.5.5 0 1 0 1 0v-.986a.5.5 0 0 0-.508-.508zm0 11a.5.5 0 0 0-.492.508v.986a.5.5 0 1 0 1 0v-.986a.5.5 0 0 0-.508-.508zm5.014-5a.5.5 0 1 0 0 1h.986a.5.5 0 1 0 0-1zm-11 0a.5.5 0 1 0 0 1h.986a.5.5 0 1 0 0-1zm9.978-3.998a.5.5 0 0 0-.344.15l-.49.49a.5.5 0 1 0 .707.708l.49-.49a.5.5 0 0 0-.363-.858zm-7.985-.002a.5.5 0 0 0-.35.86l.491.49a.5.5 0 1 0 .707-.707l-.49-.49a.5.5 0 0 0-.358-.153zm7.5 7.5a.5.5 0 0 0-.349.86l.49.49a.5.5 0 1 0 .707-.707l-.49-.49a.5.5 0 0 0-.357-.153zm-7.015 0a.5.5 0 0 0-.344.153l-.49.49a.5.5 0 1 0 .707.707l.49-.49a.5.5 0 0 0-.363-.86zm-15.485-.5v1H6v-1zm-2 4v1H6v-1zm2-2v1H6v-1zm-2-4v1H6v-1zm2 8v1H6v-1zm-2 4v1H6v-1zm2-2v1H6v-1z" overflow="visible" style="line-height:normal;text-indent:0;text-align:start;text-decoration-line:none;text-decoration-style:solid;text-decoration-color:#000;text-transform:none;white-space:normal;isolation:auto;mix-blend-mode:normal;solid-color:#000;solid-opacity:1" transform="translate(0 -1020.362)" fill="#000000" class="color000 svgShape"></path></g></svg>